<?xml version="1.0" encoding="UTF-8"?>
<svg width="30px" height="30px" viewBox="0 0 30 30" version="1.1" xmlns="http://www.w3.org/2000/svg" xmlns:xlink="http://www.w3.org/1999/xlink">
    <title>linkedin</title>
    <g id="Page-1" stroke="none" stroke-width="1" fill="none" fill-rule="evenodd">
        <g id="Sign-Up" transform="translate(-325.000000, -763.000000)" fill-rule="nonzero">
            <g id="ButtonGroup" transform="translate(33.000000, 669.000000)">
                <g id="Social-Media" transform="translate(4.000000, 76.000000)">
                    <g id="Linkedin" transform="translate(270.000000, 0.000000)">
                        <g id="linkedin" transform="translate(18.000000, 18.000000)">
                            <circle id="Oval" fill="#007AB9" cx="14.8932743" cy="14.8930088" r="14.8932743"></circle>
                            <path d="M23.7918584,16.0914159 L23.7918584,22.2315929 L20.2319469,22.2315929 L20.2319469,16.5029204 C20.2319469,15.0645133 19.7179646,14.0822124 18.4290265,14.0822124 C17.4453982,14.0822124 16.8610619,14.7435398 16.6030088,15.3838938 C16.509292,15.6127434 16.4851327,15.930531 16.4851327,16.2515044 L16.4851327,22.2313274 L12.9249558,22.2313274 C12.9249558,22.2313274 12.9727434,12.5288496 12.9249558,11.5245133 L16.4853982,11.5245133 L16.4853982,13.0417699 C16.4782301,13.0537168 16.4681416,13.0653982 16.4617699,13.0768142 L16.4853982,13.0768142 L16.4853982,13.0417699 C16.9584956,12.3138053 17.8022124,11.2730973 19.6938053,11.2730973 C22.0359292,11.2730973 23.7918584,12.8033628 23.7918584,16.0914159 L23.7918584,16.0914159 Z M9.20070796,6.36345133 C7.98292035,6.36345133 7.18619469,7.16283186 7.18619469,8.21309735 C7.18619469,9.24106195 7.95982301,10.0635398 9.1539823,10.0635398 L9.17707965,10.0635398 C10.4187611,10.0635398 11.1907965,9.24106195 11.1907965,8.21309735 C11.1671681,7.16283186 10.4187611,6.36345133 9.20070796,6.36345133 L9.20070796,6.36345133 Z M7.39778761,22.2315929 L10.9566372,22.2315929 L10.9566372,11.5245133 L7.39778761,11.5245133 L7.39778761,22.2315929 Z" id="Shape" fill="#F1F2F2"></path>
                        </g>
                    </g>
                </g>
            </g>
        </g>
    </g>
</svg>