<?xml version="1.0" encoding="UTF-8"?>
<svg width="30px" height="32px" viewBox="0 0 30 32" version="1.1" xmlns="http://www.w3.org/2000/svg" xmlns:xlink="http://www.w3.org/1999/xlink">
    <title>pinterest</title>
    <g id="Page-1" stroke="none" stroke-width="1" fill="none" fill-rule="evenodd">
        <g id="Sign-Up" transform="translate(-55.000000, -762.000000)" fill-rule="nonzero">
            <g id="ButtonGroup" transform="translate(33.000000, 669.000000)">
                <g id="Social-Media" transform="translate(4.000000, 76.000000)">
                    <g id="pinterest" transform="translate(18.000000, 17.785714)">
                        <circle id="Oval" fill="#CB2027" cx="15" cy="15.2142857" r="15"></circle>
                        <path d="M16.7529074,20.269582 C15.579191,20.1848364 15.0860143,19.6414822 14.1655283,19.1198312 C13.6596209,21.5978672 13.041351,23.9733299 11.2100656,25.2142857 C10.6441023,21.4689401 12.039776,18.6557969 12.6879353,15.6698036 C11.5831308,13.9335507 12.8207776,10.4388249 15.1510516,11.2999753 C18.0190599,12.3587796 12.668009,17.7558908 16.2602842,18.4299807 C20.0105863,19.1337832 21.5415929,12.354904 19.215747,10.1499661 C15.8553922,6.96657739 9.43440781,10.0776223 10.2239888,14.6347695 C10.4163333,15.7488651 11.6495519,16.0870727 10.716612,17.62438 C8.56595176,17.1797236 7.92443451,15.5961679 8.00690739,13.4850187 C8.14002637,10.0293069 11.3329446,7.60966275 14.5355493,7.27481396 C18.5858534,6.85160231 22.3873551,8.66329957 22.9120819,12.2200344 C23.5023995,16.2343442 21.083564,20.5816942 16.7529074,20.269582 L16.7529074,20.269582 Z" id="Path" fill="#F1F2F2"></path>
                    </g>
                </g>
            </g>
        </g>
    </g>
</svg>